<mxfile host="app.diagrams.net" modified="2021-03-31T02:00:16.611Z" agent="5.0 (Windows NT 6.1; Win64; x64) AppleWebKit/537.36 (KHTML, like Gecko) Chrome/89.0.4389.90 Safari/537.36" etag="cyPuKfFJG-1_TGrN16xk" version="14.4.9" type="github">
  <diagram id="V6T-JINNdeztCLieIxA7" name="第 1 页">
    <mxGraphModel dx="1662" dy="762" grid="1" gridSize="10" guides="1" tooltips="1" connect="1" arrows="1" fold="1" page="1" pageScale="1" pageWidth="827" pageHeight="1169" math="0" shadow="0">
      <root>
        <mxCell id="0" />
        <mxCell id="1" parent="0" />
        <mxCell id="2hdoz_TaFL5Y_7VzHWYw-22" style="edgeStyle=orthogonalEdgeStyle;rounded=0;orthogonalLoop=1;jettySize=auto;html=1;exitX=1;exitY=0.5;exitDx=0;exitDy=0;" edge="1" parent="1" source="2hdoz_TaFL5Y_7VzHWYw-1" target="2hdoz_TaFL5Y_7VzHWYw-7">
          <mxGeometry relative="1" as="geometry" />
        </mxCell>
        <mxCell id="2hdoz_TaFL5Y_7VzHWYw-23" value="6.CPU拷贝" style="edgeLabel;html=1;align=center;verticalAlign=middle;resizable=0;points=[];" vertex="1" connectable="0" parent="2hdoz_TaFL5Y_7VzHWYw-22">
          <mxGeometry x="-0.1059" y="4" relative="1" as="geometry">
            <mxPoint as="offset" />
          </mxGeometry>
        </mxCell>
        <mxCell id="2hdoz_TaFL5Y_7VzHWYw-1" value="用户缓冲区" style="rounded=1;whiteSpace=wrap;html=1;" vertex="1" parent="1">
          <mxGeometry x="270" y="110" width="120" height="60" as="geometry" />
        </mxCell>
        <mxCell id="2hdoz_TaFL5Y_7VzHWYw-2" value="" style="endArrow=none;html=1;" edge="1" parent="1">
          <mxGeometry width="50" height="50" relative="1" as="geometry">
            <mxPoint x="90" y="190" as="sourcePoint" />
            <mxPoint x="560" y="190" as="targetPoint" />
          </mxGeometry>
        </mxCell>
        <mxCell id="2hdoz_TaFL5Y_7VzHWYw-3" value="用户态" style="text;html=1;align=center;verticalAlign=middle;resizable=0;points=[];autosize=1;" vertex="1" parent="1">
          <mxGeometry x="75" y="100" width="50" height="20" as="geometry" />
        </mxCell>
        <mxCell id="2hdoz_TaFL5Y_7VzHWYw-4" value="" style="endArrow=none;html=1;" edge="1" parent="1">
          <mxGeometry width="50" height="50" relative="1" as="geometry">
            <mxPoint x="90" y="330" as="sourcePoint" />
            <mxPoint x="560" y="330" as="targetPoint" />
          </mxGeometry>
        </mxCell>
        <mxCell id="2hdoz_TaFL5Y_7VzHWYw-5" value="内核态" style="text;html=1;align=center;verticalAlign=middle;resizable=0;points=[];autosize=1;" vertex="1" parent="1">
          <mxGeometry x="65" y="200" width="50" height="20" as="geometry" />
        </mxCell>
        <mxCell id="2hdoz_TaFL5Y_7VzHWYw-14" style="edgeStyle=orthogonalEdgeStyle;rounded=0;orthogonalLoop=1;jettySize=auto;html=1;exitX=0.75;exitY=0;exitDx=0;exitDy=0;entryX=0;entryY=0.4;entryDx=0;entryDy=0;entryPerimeter=0;" edge="1" parent="1" source="2hdoz_TaFL5Y_7VzHWYw-6" target="2hdoz_TaFL5Y_7VzHWYw-1">
          <mxGeometry relative="1" as="geometry" />
        </mxCell>
        <mxCell id="2hdoz_TaFL5Y_7VzHWYw-6" value="内核缓冲区" style="rounded=0;whiteSpace=wrap;html=1;" vertex="1" parent="1">
          <mxGeometry x="120" y="250" width="120" height="60" as="geometry" />
        </mxCell>
        <mxCell id="2hdoz_TaFL5Y_7VzHWYw-24" style="edgeStyle=orthogonalEdgeStyle;rounded=0;orthogonalLoop=1;jettySize=auto;html=1;exitX=0.5;exitY=1;exitDx=0;exitDy=0;" edge="1" parent="1" source="2hdoz_TaFL5Y_7VzHWYw-7" target="2hdoz_TaFL5Y_7VzHWYw-9">
          <mxGeometry relative="1" as="geometry" />
        </mxCell>
        <mxCell id="2hdoz_TaFL5Y_7VzHWYw-7" value="socket缓冲区" style="rounded=0;whiteSpace=wrap;html=1;" vertex="1" parent="1">
          <mxGeometry x="390" y="250" width="120" height="60" as="geometry" />
        </mxCell>
        <mxCell id="2hdoz_TaFL5Y_7VzHWYw-12" style="edgeStyle=orthogonalEdgeStyle;rounded=0;orthogonalLoop=1;jettySize=auto;html=1;exitX=0.5;exitY=0;exitDx=0;exitDy=0;entryX=0.5;entryY=1;entryDx=0;entryDy=0;" edge="1" parent="1" source="2hdoz_TaFL5Y_7VzHWYw-8" target="2hdoz_TaFL5Y_7VzHWYw-6">
          <mxGeometry relative="1" as="geometry" />
        </mxCell>
        <mxCell id="2hdoz_TaFL5Y_7VzHWYw-8" value="磁盘" style="rounded=0;whiteSpace=wrap;html=1;" vertex="1" parent="1">
          <mxGeometry x="120" y="400" width="120" height="60" as="geometry" />
        </mxCell>
        <mxCell id="2hdoz_TaFL5Y_7VzHWYw-9" value="网络" style="rounded=0;whiteSpace=wrap;html=1;" vertex="1" parent="1">
          <mxGeometry x="390" y="400" width="120" height="60" as="geometry" />
        </mxCell>
        <mxCell id="2hdoz_TaFL5Y_7VzHWYw-10" value="" style="endArrow=classic;html=1;" edge="1" parent="1">
          <mxGeometry width="50" height="50" relative="1" as="geometry">
            <mxPoint x="160" y="170" as="sourcePoint" />
            <mxPoint x="160" y="240" as="targetPoint" />
          </mxGeometry>
        </mxCell>
        <mxCell id="2hdoz_TaFL5Y_7VzHWYw-11" value="1.read 用/内切换" style="text;html=1;align=center;verticalAlign=middle;resizable=0;points=[];autosize=1;" vertex="1" parent="1">
          <mxGeometry x="60" y="220" width="100" height="20" as="geometry" />
        </mxCell>
        <mxCell id="2hdoz_TaFL5Y_7VzHWYw-13" value="2.DMA 拷贝" style="text;html=1;align=center;verticalAlign=middle;resizable=0;points=[];autosize=1;" vertex="1" parent="1">
          <mxGeometry x="180" y="360" width="80" height="20" as="geometry" />
        </mxCell>
        <mxCell id="2hdoz_TaFL5Y_7VzHWYw-15" value="3.CPU拷贝" style="text;html=1;align=center;verticalAlign=middle;resizable=0;points=[];autosize=1;" vertex="1" parent="1">
          <mxGeometry x="145" y="210" width="70" height="20" as="geometry" />
        </mxCell>
        <mxCell id="2hdoz_TaFL5Y_7VzHWYw-16" value="" style="endArrow=classic;html=1;" edge="1" parent="1">
          <mxGeometry width="50" height="50" relative="1" as="geometry">
            <mxPoint x="240" y="240" as="sourcePoint" />
            <mxPoint x="240" y="170" as="targetPoint" />
          </mxGeometry>
        </mxCell>
        <mxCell id="2hdoz_TaFL5Y_7VzHWYw-18" value="4.内/用切换" style="text;html=1;align=center;verticalAlign=middle;resizable=0;points=[];autosize=1;" vertex="1" parent="1">
          <mxGeometry x="245" y="210" width="80" height="20" as="geometry" />
        </mxCell>
        <mxCell id="2hdoz_TaFL5Y_7VzHWYw-20" value="" style="endArrow=classic;html=1;" edge="1" parent="1">
          <mxGeometry width="50" height="50" relative="1" as="geometry">
            <mxPoint x="414" y="175" as="sourcePoint" />
            <mxPoint x="414" y="245" as="targetPoint" />
          </mxGeometry>
        </mxCell>
        <mxCell id="2hdoz_TaFL5Y_7VzHWYw-21" value="5.write 用/内切换" style="text;html=1;align=center;verticalAlign=middle;resizable=0;points=[];autosize=1;" vertex="1" parent="1">
          <mxGeometry x="320" y="200" width="110" height="20" as="geometry" />
        </mxCell>
        <mxCell id="2hdoz_TaFL5Y_7VzHWYw-25" value="7.DMA 拷贝" style="text;html=1;align=center;verticalAlign=middle;resizable=0;points=[];autosize=1;" vertex="1" parent="1">
          <mxGeometry x="450" y="350" width="80" height="20" as="geometry" />
        </mxCell>
        <mxCell id="2hdoz_TaFL5Y_7VzHWYw-26" value="" style="endArrow=classic;html=1;" edge="1" parent="1">
          <mxGeometry width="50" height="50" relative="1" as="geometry">
            <mxPoint x="489.5" y="245" as="sourcePoint" />
            <mxPoint x="489.5" y="175" as="targetPoint" />
          </mxGeometry>
        </mxCell>
        <mxCell id="2hdoz_TaFL5Y_7VzHWYw-27" value="8.用/内切换" style="text;html=1;align=center;verticalAlign=middle;resizable=0;points=[];autosize=1;" vertex="1" parent="1">
          <mxGeometry x="510" y="200" width="80" height="20" as="geometry" />
        </mxCell>
      </root>
    </mxGraphModel>
  </diagram>
</mxfile>
